<?xml version="1.0" encoding="UTF-8" standalone="no"?>
<svg
   width="402"
   height="175"
   viewBox="0 0 402 175"
   fill="none"
   version="1.1"
   id="svg46566"
   sodipodi:docname="Logo.svg"
   inkscape:version="1.2 (dc2aedaf03, 2022-05-15)"
   xmlns:inkscape="http://www.inkscape.org/namespaces/inkscape"
   xmlns:sodipodi="http://sodipodi.sourceforge.net/DTD/sodipodi-0.dtd"
   xmlns="http://www.w3.org/2000/svg"
   xmlns:svg="http://www.w3.org/2000/svg">
  <defs
     id="defs46570" />
  <sodipodi:namedview
     id="namedview46568"
     pagecolor="#ffffff"
     bordercolor="#666666"
     borderopacity="1.0"
     inkscape:showpageshadow="2"
     inkscape:pageopacity="0.0"
     inkscape:pagecheckerboard="0"
     inkscape:deskcolor="#d1d1d1"
     showgrid="false"
     inkscape:zoom="3.0099502"
     inkscape:cx="192.5281"
     inkscape:cy="71.097521"
     inkscape:window-width="1920"
     inkscape:window-height="1009"
     inkscape:window-x="-8"
     inkscape:window-y="-8"
     inkscape:window-maximized="1"
     inkscape:current-layer="svg46566" />
  <g
     id="g39647"
     style="fill:none;stroke-width:1.02321"
     transform="matrix(0.97731713,0,0,0.97731713,-3.2005097,3.8015545)">
    <g
       id="g32789"
       transform="translate(0,111.64321)"
       style="stroke-width:1.02321">
      <path
         fill-rule="evenodd"
         clip-rule="evenodd"
         d="M 11.9277,2.7973727e-5 C 11.7565,-2.477972 11.6694,-4.978972 11.6694,-7.500972 c 0,-59.2114 48.0006,-107.211978 107.2126,-107.211978 59.211,0 107.212,48.000578 107.212,107.211978 0,0.527 -0.004,1.052 -0.012,1.576 -0.808,-53.8842 -44.741,-97.316708 -98.818,-97.316708 -54.5814,0 -98.8289,44.247408 -98.8289,98.829708 0,1.478 0.0325,2.949 0.0968,4.411999973727 z"
         fill="#158592"
         id="path262"
         style="stroke-width:3.16216" />
      <path
         fill-rule="evenodd"
         clip-rule="evenodd"
         d="M 53.804,2.28882e-5 C 53.695,-1.5769771 53.6396,-3.1679771 53.6396,-4.7719771 c 0,-37.6722999 30.5392,-68.2113999 68.2114,-68.2113999 37.672,0 68.211,30.5391 68.211,68.2113999 0,0.334 -0.003,0.668 -0.008,1.002 -0.514,-34.2826999 -28.465,-61.9149999 -62.87,-61.9149999 -34.7263,0 -62.8776,28.1513 -62.8776,62.8779999 0,0.94 0.0207,1.87599999 0.0616,2.8069999882 z"
         fill="#158592"
         id="path264"
         style="stroke-width:3.16216" />
      <path
         fill-rule="evenodd"
         clip-rule="evenodd"
         d="M 215.022,2.28882e-5 C 215.161,-2.0709771 215.231,-4.1599771 215.231,-6.2669771 c 0,-49.4751999 -38.832,-89.5825999 -86.735,-89.5825999 -47.9031,0 -86.736,40.1074 -86.736,89.5825999 0,0.438 0.0031,0.875 0.0092,1.312 0.6563,-45.0215999 36.1974,-81.3095999 79.9448,-81.3095999 44.157,0 79.954,36.9715 79.954,82.5775999 0,1.236 -0.027,2.465 -0.079,3.6869999882 z"
         fill="#6db0b8"
         id="path266"
         style="stroke-width:3.16216" />
    </g>
    <g
       id="g39630"
       style="stroke-width:1.02321">
      <path
         d="m 15.1562,133.379 -3.5,33.562 H 4 l 7.6562,-45 H 23 l 10.5312,34.344 10.6563,-34.344 h 11.3437 l 6.375,45 h -12.625 l -3.7187,-32.687 -8.7813,32.687 H 25.4375 Z"
         fill="#158592"
         id="path268"
         style="stroke-width:3.16216" />
      <path
         d="m 79.9688,122.129 c 0,0.792 -0.1563,1.542 -0.4688,2.25 -0.2917,0.708 -0.6979,1.323 -1.2188,1.844 -0.5208,0.52 -1.1354,0.937 -1.8437,1.25 -0.7083,0.291 -1.4583,0.437 -2.25,0.437 -0.7917,0 -1.5417,-0.146 -2.25,-0.437 -0.6875,-0.313 -1.2917,-0.73 -1.8125,-1.25 -0.5208,-0.521 -0.9375,-1.136 -1.25,-1.844 -0.2917,-0.708 -0.4375,-1.458 -0.4375,-2.25 0,-0.792 0.1458,-1.531 0.4375,-2.219 0.3125,-0.708 0.7292,-1.323 1.25,-1.844 0.5208,-0.52 1.125,-0.927 1.8125,-1.218 0.7083,-0.313 1.4583,-0.469 2.25,-0.469 0.7917,0 1.5417,0.156 2.25,0.469 0.7083,0.291 1.3229,0.698 1.8437,1.218 0.5209,0.521 0.9271,1.136 1.2188,1.844 0.3125,0.688 0.4688,1.427 0.4688,2.219 z M 79.5,166.941 H 68.9062 V 130.879 H 79.5 Z"
         fill="#158592"
         id="path270"
         style="stroke-width:3.16216" />
      <path
         d="m 125.281,146.254 c 0,2.437 -0.302,4.979 -0.906,7.625 -0.583,2.646 -1.406,5.239 -2.469,7.781 -1.062,2.542 -2.333,4.927 -3.812,7.156 -1.479,2.25 -3.104,4.188 -4.875,5.813 l -3.969,-2.156 c 0.562,-1.042 1.094,-2.209 1.594,-3.5 0.5,-1.292 0.948,-2.657 1.344,-4.094 0.416,-1.458 0.781,-2.958 1.093,-4.5 0.334,-1.542 0.604,-3.063 0.813,-4.563 0.229,-1.52 0.396,-2.989 0.5,-4.406 0.125,-1.437 0.187,-2.771 0.187,-4 0,-0.812 -0.031,-1.677 -0.093,-2.594 -0.063,-0.937 -0.198,-1.864 -0.407,-2.781 -0.187,-0.937 -0.448,-1.833 -0.781,-2.687 -0.333,-0.855 -0.781,-1.605 -1.344,-2.25 -0.541,-0.646 -1.208,-1.167 -2,-1.563 -0.771,-0.396 -1.687,-0.594 -2.75,-0.594 -1.041,0 -1.968,0.24 -2.781,0.719 -0.813,0.458 -1.531,1.073 -2.156,1.844 -0.625,0.75 -1.167,1.614 -1.625,2.594 -0.438,0.979 -0.802,1.989 -1.094,3.031 -0.2708,1.021 -0.4688,2.031 -0.5938,3.031 -0.125,1 -0.1874,1.896 -0.1874,2.688 v 18.093 H 88.375 v -36.093 h 4.0625 l 4.8437,8.406 c 0.5834,-1.396 1.3126,-2.667 2.1876,-3.813 0.8752,-1.145 1.8642,-2.125 2.9692,-2.937 1.104,-0.813 2.322,-1.438 3.656,-1.875 1.354,-0.438 2.812,-0.656 4.375,-0.656 2.5,0 4.677,0.406 6.531,1.218 1.854,0.813 3.396,1.948 4.625,3.407 1.229,1.437 2.146,3.156 2.75,5.156 0.604,1.979 0.906,4.146 0.906,6.5 z"
         fill="#158592"
         id="path272"
         style="stroke-width:3.16216" />
      <path
         d="m 168.625,166.941 h -4.063 l -4.687,-7.843 c -0.458,1.312 -1.094,2.5 -1.906,3.562 -0.792,1.063 -1.719,1.979 -2.781,2.75 -1.042,0.75 -2.198,1.333 -3.469,1.75 -1.25,0.417 -2.573,0.625 -3.969,0.625 -2.75,0 -5.208,-0.489 -7.375,-1.469 -2.167,-0.979 -4,-2.312 -5.5,-4 -1.5,-1.708 -2.646,-3.708 -3.437,-6 -0.792,-2.291 -1.188,-4.75 -1.188,-7.375 0,-2.625 0.396,-5.083 1.188,-7.375 0.791,-2.291 1.937,-4.281 3.437,-5.968 1.5,-1.688 3.333,-3.021 5.5,-4 2.167,-0.98 4.625,-1.469 7.375,-1.469 2.104,0 4.031,0.406 5.781,1.219 1.771,0.812 3.281,2.083 4.531,3.812 v -17.594 h 10.563 z m -10.625,-18 c 0,-0.833 -0.062,-1.75 -0.188,-2.75 -0.124,-1 -0.322,-2.01 -0.593,-3.031 -0.271,-1.021 -0.625,-2.01 -1.063,-2.969 -0.437,-0.958 -0.979,-1.812 -1.625,-2.562 -0.625,-0.75 -1.364,-1.344 -2.219,-1.781 -0.833,-0.459 -1.791,-0.688 -2.874,-0.688 -1.188,0 -2.219,0.219 -3.094,0.656 -0.875,0.417 -1.625,0.99 -2.25,1.719 -0.625,0.708 -1.146,1.531 -1.563,2.469 -0.396,0.937 -0.708,1.917 -0.937,2.937 -0.229,1.021 -0.396,2.052 -0.5,3.094 -0.084,1.021 -0.125,1.99 -0.125,2.906 0,0.917 0.041,1.896 0.125,2.938 0.104,1.021 0.271,2.042 0.5,3.062 0.229,1.021 0.541,2.011 0.937,2.969 0.417,0.938 0.938,1.771 1.563,2.5 0.625,0.708 1.375,1.281 2.25,1.719 0.875,0.417 1.906,0.625 3.094,0.625 1.187,0 2.229,-0.208 3.124,-0.625 0.896,-0.417 1.657,-0.979 2.282,-1.688 0.646,-0.729 1.166,-1.552 1.562,-2.468 0.417,-0.938 0.74,-1.917 0.969,-2.938 0.229,-1.042 0.385,-2.083 0.469,-3.125 0.104,-1.042 0.156,-2.031 0.156,-2.969 z"
         fill="#158592"
         id="path274"
         style="stroke-width:3.16216" />
      <path
         d="m 187.156,133.379 -3.5,33.562 H 176 l 7.656,-45 H 195 l 10.531,34.344 10.657,-34.344 h 11.343 l 6.375,45 h -12.625 l -3.719,-32.687 -8.781,32.687 h -11.343 z"
         fill="#6db0b8"
         id="path276"
         style="stroke-width:3.16216" />
      <path
         d="m 276.969,166.941 h -10.563 v -4.312 c -1.25,1.708 -2.76,2.979 -4.531,3.812 -1.75,0.813 -3.677,1.219 -5.781,1.219 -2.75,0 -5.209,-0.489 -7.375,-1.469 -2.167,-0.979 -4,-2.312 -5.5,-4 -1.5,-1.708 -2.646,-3.708 -3.438,-6 -0.791,-2.291 -1.187,-4.75 -1.187,-7.375 0,-2.625 0.396,-5.083 1.187,-7.375 0.792,-2.291 1.938,-4.281 3.438,-5.968 1.5,-1.709 3.333,-3.052 5.5,-4.032 2.166,-0.979 4.625,-1.468 7.375,-1.468 1.396,0 2.718,0.208 3.968,0.625 1.271,0.416 2.428,1.01 3.469,1.781 1.063,0.75 1.99,1.667 2.781,2.75 0.813,1.062 1.448,2.25 1.907,3.562 l 4.687,-7.843 h 4.063 z m -10.625,-18.125 c 0,-0.937 -0.052,-1.927 -0.156,-2.968 -0.084,-1.042 -0.24,-2.073 -0.469,-3.094 -0.229,-1.021 -0.552,-1.99 -0.969,-2.906 -0.396,-0.938 -0.917,-1.761 -1.562,-2.469 -0.626,-0.729 -1.386,-1.302 -2.282,-1.719 -0.896,-0.417 -1.937,-0.625 -3.125,-0.625 -1.187,0 -2.219,0.219 -3.093,0.656 -0.876,0.417 -1.626,0.99 -2.25,1.719 -0.626,0.708 -1.146,1.531 -1.563,2.469 -0.396,0.937 -0.708,1.917 -0.937,2.937 -0.23,1.021 -0.396,2.052 -0.5,3.094 -0.084,1.021 -0.126,1.99 -0.126,2.906 0,0.917 0.042,1.896 0.126,2.938 0.104,1.042 0.27,2.073 0.5,3.094 0.229,1.02 0.541,2 0.937,2.937 0.417,0.938 0.937,1.771 1.563,2.5 0.624,0.708 1.374,1.281 2.25,1.719 0.874,0.417 1.906,0.625 3.093,0.625 1.084,0 2.042,-0.219 2.875,-0.656 0.854,-0.459 1.594,-1.063 2.219,-1.813 0.646,-0.75 1.187,-1.604 1.625,-2.562 0.438,-0.959 0.792,-1.948 1.062,-2.969 0.271,-1.021 0.469,-2.031 0.594,-3.031 0.125,-1.021 0.188,-1.948 0.188,-2.782 z"
         fill="#6db0b8"
         id="path278"
         style="stroke-width:3.16216" />
      <path
         d="m 299.406,166.941 h -10.594 v -31.906 h -6.562 v -4.187 h 6.562 v -13.282 h 10.594 v 13.282 h 10.938 v 4.187 h -10.938 z"
         fill="#6db0b8"
         id="path280"
         style="stroke-width:3.16216" />
      <path
         d="M 345.938,134.035 340,143.879 c -0.25,-0.833 -0.573,-1.771 -0.969,-2.813 -0.396,-1.041 -0.885,-2.01 -1.469,-2.906 -0.583,-0.917 -1.281,-1.677 -2.093,-2.281 -0.813,-0.625 -1.75,-0.938 -2.813,-0.938 -0.979,0 -1.833,0.25 -2.562,0.75 -0.709,0.5 -1.313,1.157 -1.813,1.969 -0.5,0.792 -0.916,1.698 -1.25,2.719 -0.312,1 -0.562,2.021 -0.75,3.062 -0.166,1.021 -0.281,2.011 -0.343,2.969 -0.063,0.938 -0.094,1.75 -0.094,2.438 v 18.093 H 315.25 v -36.093 h 4.062 l 4.282,8.406 c 0.583,-1.354 1.25,-2.594 2,-3.719 0.75,-1.146 1.614,-2.125 2.594,-2.937 0.979,-0.834 2.083,-1.48 3.312,-1.938 1.25,-0.458 2.656,-0.687 4.219,-0.687 0.812,0 1.719,0.073 2.719,0.218 1,0.125 1.979,0.355 2.937,0.688 0.958,0.312 1.844,0.729 2.656,1.25 0.813,0.521 1.448,1.156 1.907,1.906 z"
         fill="#6db0b8"
         id="path282"
         style="stroke-width:3.16216" />
      <path
         d="m 361.469,122.129 c 0,0.792 -0.157,1.542 -0.469,2.25 -0.292,0.708 -0.698,1.323 -1.219,1.844 -0.521,0.52 -1.135,0.937 -1.843,1.25 -0.709,0.291 -1.459,0.437 -2.25,0.437 -0.792,0 -1.542,-0.146 -2.25,-0.437 -0.688,-0.313 -1.292,-0.73 -1.813,-1.25 -0.521,-0.521 -0.937,-1.136 -1.25,-1.844 -0.292,-0.708 -0.437,-1.458 -0.437,-2.25 0,-0.792 0.145,-1.531 0.437,-2.219 0.313,-0.708 0.729,-1.323 1.25,-1.844 0.521,-0.52 1.125,-0.927 1.813,-1.218 0.708,-0.313 1.458,-0.469 2.25,-0.469 0.791,0 1.541,0.156 2.25,0.469 0.708,0.291 1.322,0.698 1.843,1.218 0.521,0.521 0.927,1.136 1.219,1.844 0.312,0.688 0.469,1.427 0.469,2.219 z M 361,166.941 H 350.406 V 130.879 H 361 Z"
         fill="#6db0b8"
         id="path284"
         style="stroke-width:3.16216" />
      <path
         d="m 401.781,166.941 h -10.562 l -8.844,-12.656 -9.031,12.656 h -7.313 l 13.594,-16.625 -13.594,-19.468 h 10.563 l 8.562,12.25 9.313,-12.25 h 7.312 l -13.875,16.187 z"
         fill="#6db0b8"
         id="path286"
         style="stroke-width:3.16216" />
    </g>
  </g>
</svg>
