<?xml version="1.0" encoding="UTF-8" standalone="no"?>
<svg
   width="113.30374"
   height="100"
   viewBox="0 0 113.30374 100"
   fill="none"
   version="1.1"
   id="svg222"
   sodipodi:docname="Mind Matrixac-track-icons.svg"
   inkscape:version="1.2 (dc2aedaf03, 2022-05-15)"
   xmlns:inkscape="http://www.inkscape.org/namespaces/inkscape"
   xmlns:sodipodi="http://sodipodi.sourceforge.net/DTD/sodipodi-0.dtd"
   xmlns="http://www.w3.org/2000/svg"
   xmlns:svg="http://www.w3.org/2000/svg">
  <defs
     id="defs226" />
  <sodipodi:namedview
     id="namedview224"
     pagecolor="#ffffff"
     bordercolor="#666666"
     borderopacity="1.0"
     inkscape:showpageshadow="2"
     inkscape:pageopacity="0.0"
     inkscape:pagecheckerboard="0"
     inkscape:deskcolor="#d1d1d1"
     showgrid="false"
     inkscape:zoom="1.5548847"
     inkscape:cx="213.19909"
     inkscape:cy="98.399581"
     inkscape:window-width="1920"
     inkscape:window-height="1009"
     inkscape:window-x="-8"
     inkscape:window-y="-8"
     inkscape:window-maximized="1"
     inkscape:current-layer="svg222" />
  <path
     fill-rule="evenodd"
     clip-rule="evenodd"
     d="M 28.098313,-6.8559265e-8 C 24.316663,-6.8559265e-8 20.825033,2.0353119 18.949803,5.3325569 L 1.3885327,36.201099 c -2.35745001,4.143387 -1.66204001,9.359522 1.698,12.734729 L 51.995023,98.061877 c 2.57169,2.584163 6.7421,2.584163 9.31378,0 L 110.2176,48.935828 c 3.35962,-3.375207 4.05503,-8.591342 1.69749,-12.734729 L 94.354033,5.3325569 C 92.478803,2.0353119 88.987173,-6.8559266e-8 85.205523,-6.8559266e-8 Z M 39.302913,33.301976 c -2.05714,-2.066496 -5.39285,-2.066496 -7.45103,0 -2.05714,2.066496 -2.05714,5.417795 0,7.484291 L 51.995023,61.0188 c 2.57169,2.58312 6.7421,2.58312 9.31378,0 l 20.14314,-20.232533 c 2.05714,-2.066496 2.05714,-5.417795 0,-7.484291 -2.05818,-2.066496 -5.39388,-2.066496 -7.45102,0 L 56.651913,50.7279 Z"
     fill="#6db0b8"
     id="path218"
     style="stroke-width:1" />
</svg>
