<?xml version="1.0" encoding="UTF-8" standalone="no"?>
<svg
   width="95.110107"
   height="100"
   viewBox="0 0 95.11011 100"
   fill="none"
   version="1.1"
   id="svg222"
   sodipodi:docname="Mind Matrixac-track-icons.svg"
   inkscape:version="1.2 (dc2aedaf03, 2022-05-15)"
   xmlns:inkscape="http://www.inkscape.org/namespaces/inkscape"
   xmlns:sodipodi="http://sodipodi.sourceforge.net/DTD/sodipodi-0.dtd"
   xmlns="http://www.w3.org/2000/svg"
   xmlns:svg="http://www.w3.org/2000/svg">
  <defs
     id="defs226" />
  <sodipodi:namedview
     id="namedview224"
     pagecolor="#ffffff"
     bordercolor="#666666"
     borderopacity="1.0"
     inkscape:showpageshadow="2"
     inkscape:pageopacity="0.0"
     inkscape:pagecheckerboard="0"
     inkscape:deskcolor="#d1d1d1"
     showgrid="false"
     inkscape:zoom="4.0300001"
     inkscape:cx="71.836226"
     inkscape:cy="64.267988"
     inkscape:window-width="1920"
     inkscape:window-height="1009"
     inkscape:window-x="-8"
     inkscape:window-y="-8"
     inkscape:window-maximized="1"
     inkscape:current-layer="svg222" />
  <g
     id="g456"
     transform="matrix(1.0160075,0,0,1.0160075,-99.56876,-60.960475)"
     style="stroke-width:0.984244">
    <path
       d="m 187.416,81.1915 c 5.594,2.9627 5.594,10.9909 0,13.9536 l -37.703,19.9719 c -3.07,1.626 -6.744,1.626 -9.814,0 L 102.195,95.1451 c -5.5933,-2.9627 -5.5933,-10.9909 0,-13.9536 l 37.704,-19.9719 c 3.07,-1.6261 6.744,-1.6261 9.814,0 z"
       fill="#6db0b8"
       id="path186"
       style="stroke-width:0.921368" />
    <path
       d="m 188.092,102.635 c -0.215,0.142 -0.44,0.275 -0.676,0.4 l -37.703,19.972 c -3.07,1.626 -6.744,1.626 -9.814,0 l -37.704,-19.972 c -0.235,-0.125 -0.46,-0.258 -0.676,-0.4 -4.907,3.229 -4.6817,10.716 0.676,13.554 l 37.704,19.972 c 3.07,1.626 6.744,1.626 9.814,0 l 37.704,-19.972 c 5.358,-2.838 5.583,-10.325 0.675,-13.554 z"
       fill="#6db0b8"
       id="path188"
       style="stroke-width:0.921368" />
    <path
       d="m 187.416,124.079 c 0.236,-0.125 0.461,-0.258 0.676,-0.4 4.908,3.229 4.683,10.716 -0.675,13.554 l -37.704,19.972 c -3.07,1.626 -6.744,1.626 -9.814,0 l -37.704,-19.972 c -5.3577,-2.838 -5.583,-10.325 -0.676,-13.554 0.216,0.142 0.441,0.275 0.676,0.4 l 37.704,19.972 c 3.07,1.626 6.744,1.626 9.814,0 z"
       fill="#6db0b8"
       id="path190"
       style="stroke-width:0.921368" />
  </g>
</svg>
