<?xml version="1.0" encoding="UTF-8" standalone="no"?>
<svg
   width="99.791061"
   height="100"
   viewBox="0 0 99.791064 100"
   fill="none"
   version="1.1"
   id="svg222"
   sodipodi:docname="Mind Matrixac-track-icons.svg"
   inkscape:version="1.2 (dc2aedaf03, 2022-05-15)"
   xmlns:inkscape="http://www.inkscape.org/namespaces/inkscape"
   xmlns:sodipodi="http://sodipodi.sourceforge.net/DTD/sodipodi-0.dtd"
   xmlns="http://www.w3.org/2000/svg"
   xmlns:svg="http://www.w3.org/2000/svg">
  <defs
     id="defs226" />
  <sodipodi:namedview
     id="namedview224"
     pagecolor="#ffffff"
     bordercolor="#666666"
     borderopacity="1.0"
     inkscape:showpageshadow="2"
     inkscape:pageopacity="0.0"
     inkscape:pagecheckerboard="0"
     inkscape:deskcolor="#d1d1d1"
     showgrid="false"
     inkscape:zoom="1.5548847"
     inkscape:cx="213.19909"
     inkscape:cy="98.399581"
     inkscape:window-width="1920"
     inkscape:window-height="1009"
     inkscape:window-x="-8"
     inkscape:window-y="-8"
     inkscape:window-maximized="1"
     inkscape:current-layer="svg222" />
  <g
     id="g471"
     transform="matrix(1.0394902,0,0,1.0394902,-270.26746,-62.369412)"
     style="stroke-width:0.96201">
    <path
       d="m 308,60 c -0.382,0 -0.763,0.0045 -1.144,0.0134 -2.65,0.0622 -4.748,2.2656 -4.686,4.9214 0.062,2.6558 2.261,4.7583 4.911,4.6961 0.305,-0.0072 0.612,-0.0108 0.919,-0.0108 0.307,0 0.614,0.0036 0.919,0.0108 2.65,0.0622 4.849,-2.0403 4.911,-4.6961 0.062,-2.6558 -2.036,-4.8592 -4.686,-4.9214 C 308.763,60.0045 308.382,60 308,60 Z"
       fill="#6db0b8"
       id="path192"
       style="stroke-width:0.92353" />
    <path
       d="m 331.011,65.8783 c -2.326,-1.2752 -5.242,-0.4197 -6.515,1.9107 -1.272,2.3305 -0.419,5.2534 1.907,6.5286 0.535,0.2934 1.062,0.5993 1.582,0.9172 2.262,1.3847 5.216,0.6695 6.598,-1.5976 1.382,-2.267 0.668,-5.2274 -1.594,-6.6122 -0.649,-0.3974 -1.309,-0.7798 -1.978,-1.1467 z"
       fill="#6db0b8"
       id="path194"
       style="stroke-width:0.92353" />
    <path
       d="m 289.597,74.3176 c 2.326,-1.2752 3.179,-4.1981 1.907,-6.5286 -1.273,-2.3304 -4.189,-3.1859 -6.515,-1.9107 -0.669,0.3669 -1.329,0.7493 -1.978,1.1467 -2.262,1.3848 -2.976,4.3452 -1.594,6.6122 1.382,2.2671 4.336,2.9823 6.598,1.5976 0.52,-0.3179 1.047,-0.6238 1.582,-0.9172 z"
       fill="#6db0b8"
       id="path196"
       style="stroke-width:0.92353" />
    <path
       d="m 348.99,83.0594 c -1.382,-2.2671 -4.336,-2.9824 -6.599,-1.5976 -2.262,1.3847 -2.976,4.3451 -1.594,6.6122 0.317,0.5205 0.623,1.049 0.915,1.5852 1.273,2.3305 4.19,3.186 6.515,1.9108 2.326,-1.2752 3.18,-4.1982 1.907,-6.5286 -0.366,-0.6706 -0.748,-1.3314 -1.144,-1.982 z"
       fill="#6db0b8"
       id="path198"
       style="stroke-width:0.92353" />
    <path
       d="m 275.203,88.074 c 1.382,-2.2671 0.668,-5.2274 -1.594,-6.6122 -2.263,-1.3848 -5.217,-0.6695 -6.599,1.5976 -0.396,0.6506 -0.778,1.3114 -1.144,1.982 -1.273,2.3304 -0.419,5.2534 1.907,6.5286 2.325,1.2752 5.242,0.4197 6.515,-1.9108 0.292,-0.5362 0.598,-1.0647 0.915,-1.5852 z"
       fill="#6db0b8"
       id="path200"
       style="stroke-width:0.92353" />
    <path
       d="m 269.611,107.18 c 0.062,-2.656 -2.036,-4.859 -4.687,-4.922 -2.65,-0.062 -4.849,2.041 -4.911,4.696 -0.009,0.382 -0.013,0.764 -0.013,1.147 0,0.383 0.004,0.765 0.013,1.146 0.062,2.656 2.261,4.758 4.911,4.696 2.651,-0.062 4.749,-2.266 4.687,-4.922 -0.007,-0.306 -0.011,-0.612 -0.011,-0.92 0,-0.308 0.004,-0.615 0.011,-0.921 z"
       fill="#6db0b8"
       id="path202"
       style="stroke-width:0.92353" />
    <path
       d="m 355.987,106.954 c -0.062,-2.655 -2.261,-4.758 -4.911,-4.696 -2.651,0.063 -4.749,2.266 -4.687,4.922 0.007,0.306 0.011,0.613 0.011,0.921 0,0.308 -0.004,0.614 -0.011,0.92 -0.062,2.656 2.036,4.86 4.687,4.922 2.65,0.062 4.849,-2.04 4.911,-4.696 0.009,-0.381 0.013,-0.763 0.013,-1.146 0,-0.383 -0.004,-0.765 -0.013,-1.147 z"
       fill="#6db0b8"
       id="path204"
       style="stroke-width:0.92353" />
    <path
       d="m 350.134,131.16 c 1.273,-2.331 0.419,-5.254 -1.907,-6.529 -2.325,-1.275 -5.242,-0.419 -6.515,1.911 -0.292,0.536 -0.598,1.065 -0.915,1.585 -1.382,2.267 -0.668,5.228 1.594,6.612 2.263,1.385 5.217,0.67 6.599,-1.597 0.396,-0.651 0.778,-1.312 1.144,-1.982 z"
       fill="#6db0b8"
       id="path206"
       style="stroke-width:0.92353" />
    <path
       d="m 274.288,126.542 c -1.273,-2.33 -4.19,-3.186 -6.515,-1.911 -2.326,1.275 -3.18,4.198 -1.907,6.529 0.366,0.67 0.748,1.331 1.144,1.982 1.382,2.267 4.336,2.982 6.599,1.597 2.262,-1.384 2.976,-4.345 1.594,-6.612 -0.317,-0.52 -0.623,-1.049 -0.915,-1.585 z"
       fill="#6db0b8"
       id="path208"
       style="stroke-width:0.92353" />
    <path
       d="m 332.989,149.176 c 2.262,-1.385 2.976,-4.345 1.594,-6.612 -1.382,-2.267 -4.336,-2.982 -6.598,-1.598 -0.52,0.318 -1.047,0.624 -1.582,0.918 -2.326,1.275 -3.179,4.198 -1.907,6.528 1.273,2.331 4.189,3.186 6.515,1.911 0.669,-0.367 1.329,-0.749 1.978,-1.147 z"
       fill="#6db0b8"
       id="path210"
       style="stroke-width:0.92353" />
    <path
       d="m 288.015,140.966 c -2.262,-1.384 -5.216,-0.669 -6.598,1.598 -1.382,2.267 -0.668,5.227 1.594,6.612 0.649,0.398 1.309,0.78 1.978,1.147 2.326,1.275 5.242,0.42 6.515,-1.911 1.272,-2.33 0.419,-5.253 -1.907,-6.528 -0.535,-0.294 -1.062,-0.6 -1.582,-0.918 z"
       fill="#6db0b8"
       id="path212"
       style="stroke-width:0.92353" />
    <path
       d="m 307.081,146.57 c -2.65,-0.062 -4.849,2.041 -4.911,4.696 -0.062,2.656 2.036,4.86 4.686,4.922 0.381,0.009 0.762,0.013 1.144,0.013 0.382,0 0.763,-0.004 1.144,-0.013 2.65,-0.062 4.748,-2.266 4.686,-4.922 -0.062,-2.655 -2.261,-4.758 -4.911,-4.696 -0.305,0.008 -0.612,0.011 -0.919,0.011 -0.307,0 -0.614,-0.003 -0.919,-0.011 z"
       fill="#6db0b8"
       id="path214"
       style="stroke-width:0.92353" />
    <path
       fill-rule="evenodd"
       clip-rule="evenodd"
       d="m 279.2,108.101 c 0,-15.9395 12.894,-28.8607 28.8,-28.8607 15.906,0 28.8,12.9212 28.8,28.8607 0,15.939 -12.894,28.86 -28.8,28.86 -15.906,0 -28.8,-12.921 -28.8,-28.86 z m 19.2,0 c 0,-5.313 4.298,-9.6205 9.6,-9.6205 5.302,0 9.6,4.3075 9.6,9.6205 0,5.313 -4.298,9.62 -9.6,9.62 -5.302,0 -9.6,-4.307 -9.6,-9.62 z"
       fill="#6db0b8"
       id="path216"
       style="stroke-width:0.92353" />
  </g>
</svg>
